<?xml version="1.0" encoding="UTF-8"?>
<svg xmlns="http://www.w3.org/2000/svg" xmlns:xlink="http://www.w3.org/1999/xlink" width="500pt" height="500pt" viewBox="0 0 500 500" version="1.1">
<g id="surface5422593">
<path style=" stroke:none;fill-rule:nonzero;fill:rgb(20%,74.509805%,94.117647%);fill-opacity:1;" d="M 322.148438 20.625 L 278.554688 37.753906 L 286.171875 75.898438 C 283.203125 78.890625 280.023438 82.285156 276.660156 85.976562 L 239.101562 77.382812 L 220.527344 120.703125 L 253.066406 142.382812 C 252.757812 147.371094 252.769531 152.378906 253.066406 157.363281 L 219.628906 177.851562 L 236.757812 221.445312 L 274.882812 213.828125 C 277.988281 217.503906 281.386719 220.890625 285.058594 224.003906 L 276.386719 261.914062 L 319.707031 280.46875 L 341.40625 247.929688 C 346.386719 248.234375 351.390625 248.226562 356.367188 247.929688 L 376.855469 281.367188 L 420.527344 264.21875 L 411.855469 223.085938 C 415.492188 220.011719 418.832031 216.652344 421.914062 213.027344 L 460.839844 222.773438 L 464.199219 214.941406 L 479.589844 178.984375 L 445.9375 158.359375 C 446.230469 153.460938 446.230469 148.53125 445.9375 143.632812 L 479.375 123.144531 L 462.1875 79.375 L 423.027344 88.085938 C 419.945312 84.445312 416.585938 81.09375 412.949219 78.007812 L 421.601562 40.097656 L 378.105469 21.445312 L 357.421875 54.101562 C 352.796875 53.644531 347.832031 53.832031 342.714844 54.199219 Z M 313.847656 45.371094 L 332.207031 75.3125 L 339.160156 73.769531 C 346.246094 72.195312 352.8125 72.9375 361.894531 73.945312 L 368.105469 74.628906 L 385.898438 46.542969 L 398.398438 51.914062 L 390.761719 85.273438 L 396.191406 89.140625 C 402.3125 93.511719 407.484375 98.683594 411.855469 104.804688 L 415.703125 110.195312 L 449.824219 102.617188 L 454.628906 114.863281 L 425.351562 132.792969 L 426.054688 139.101562 C 426.984375 147.457031 426.984375 154.535156 426.054688 162.890625 L 425.351562 169.199219 L 454.394531 187.011719 L 449.160156 199.21875 L 414.824219 190.644531 L 410.859375 196.191406 C 406.488281 202.3125 401.316406 207.484375 395.195312 211.855469 L 389.863281 215.664062 L 397.480469 251.777344 L 385.136719 256.621094 L 367.207031 227.363281 L 360.898438 228.066406 C 352.542969 228.996094 345.464844 228.996094 337.109375 228.066406 L 331.054688 227.382812 L 312.285156 255.527344 L 299.609375 250.097656 L 307.226562 216.738281 L 301.816406 212.871094 C 295.695312 208.5 290.503906 203.308594 286.132812 197.1875 L 282.382812 191.933594 L 249.238281 198.554688 L 244.375 186.152344 L 273.632812 168.203125 L 272.929688 161.894531 C 272 153.542969 272 146.460938 272.929688 138.105469 L 273.613281 132.050781 L 245.46875 113.300781 L 250.898438 100.605469 L 283.652344 108.085938 L 287.597656 103.515625 C 293.292969 96.871094 299.0625 91.074219 304.0625 86.074219 L 307.851562 82.285156 L 301.445312 50.253906 Z M 350 100 C 322.546875 100 300 122.546875 300 150 C 300 177.453125 322.546875 200 350 200 C 377.453125 200 400 177.453125 400 150 C 400 122.546875 377.453125 100 350 100 Z M 350 120 C 366.546875 120 380 133.453125 380 150 C 380 166.546875 366.546875 180 350 180 C 333.453125 180 320 166.546875 320 150 C 320 133.453125 333.453125 120 350 120 Z M 135.449219 200 L 128.964844 241.132812 C 123.554688 242.875 118.363281 245.039062 113.398438 247.695312 L 78.945312 222.929688 L 44.042969 257.8125 L 67.734375 292.246094 C 65.058594 297.609375 62.730469 302.902344 60.9375 308.144531 L 20 315.683594 L 20 364.316406 L 61.074219 371.894531 C 62.8125 377.332031 64.992188 382.527344 67.65625 387.519531 L 42.832031 420.976562 L 77.8125 455.957031 L 112.246094 432.265625 C 117.554688 434.914062 122.796875 437.203125 127.988281 438.984375 L 134.453125 480 L 183.320312 480 L 190.898438 438.925781 C 196.359375 437.179688 201.589844 434.984375 206.601562 432.304688 L 241.054688 457.070312 L 276.074219 422.070312 L 251.328125 387.617188 C 253.960938 382.3125 256.273438 377.078125 258.046875 371.894531 L 300 364.355469 L 300 315.429688 L 257.851562 308.945312 C 256.109375 303.542969 253.960938 298.359375 251.308594 293.398438 L 275.976562 259.082031 L 241.210938 222.8125 L 206.621094 247.675781 C 201.363281 245.0625 196.160156 242.777344 191.015625 241.015625 L 184.550781 200 Z M 152.539062 220 L 167.460938 220 L 173.066406 255.566406 L 178.828125 257.480469 C 187.828125 260.480469 196.027344 263.3125 202.695312 267.480469 L 208.398438 271.035156 L 238.789062 249.179688 L 250.019531 260.917969 L 227.96875 291.601562 L 231.523438 297.304688 C 236.007812 304.480469 239.535156 312.554688 241.230469 320.175781 L 242.714844 326.835938 L 280 332.578125 L 280 347.636719 L 243.398438 354.199219 L 241.503906 359.84375 C 238.503906 368.84375 235.691406 377.023438 231.523438 383.691406 L 227.96875 389.394531 L 249.921875 419.941406 L 238.945312 430.917969 L 208.398438 408.964844 L 202.695312 412.519531 C 195.519531 417.003906 187.445312 420.550781 179.824219 422.246094 L 173.359375 423.671875 L 166.679688 460 L 151.542969 460 L 145.9375 424.433594 L 140.15625 422.519531 C 131.15625 419.519531 122.976562 416.6875 116.308594 412.519531 L 110.742188 409.042969 L 80.195312 430.039062 L 69.179688 419.023438 L 91.09375 389.472656 L 87.480469 383.691406 C 82.996094 376.515625 79.449219 368.460938 77.753906 360.839844 L 76.328125 354.375 L 40 347.675781 L 40 332.324219 L 75.625 325.761719 L 77.480469 320.15625 C 80.480469 311.15625 83.3125 302.976562 87.480469 296.308594 L 90.957031 290.742188 L 69.960938 260.195312 L 81.054688 249.082031 L 111.601562 271.035156 L 117.304688 267.480469 C 124.480469 262.996094 132.554688 259.449219 140.175781 257.753906 L 146.816406 256.289062 Z M 160 290 C 144.167969 290 131.019531 296.296875 122.519531 305.859375 C 114.019531 315.421875 110 327.777344 110 340 C 110 352.222656 114.019531 364.578125 122.519531 374.140625 C 131.019531 383.703125 144.167969 390 160 390 C 175.832031 390 188.980469 383.703125 197.480469 374.140625 C 205.980469 364.578125 210 352.222656 210 340 C 210 327.777344 205.980469 315.421875 197.480469 305.859375 C 188.980469 296.296875 175.832031 290 160 290 Z M 160 310 C 170.832031 310 177.6875 313.703125 182.519531 319.140625 C 187.351562 324.578125 190 332.222656 190 340 C 190 347.777344 187.351562 355.421875 182.519531 360.859375 C 177.6875 366.296875 170.832031 370 160 370 C 149.167969 370 142.3125 366.296875 137.480469 360.859375 C 132.648438 355.421875 130 347.777344 130 340 C 130 332.222656 132.648438 324.578125 137.480469 319.140625 C 142.3125 313.703125 149.167969 310 160 310 Z M 160 310 "/>
</g>
</svg>
