<?xml version="1.0" encoding="UTF-8"?>
<svg xmlns="http://www.w3.org/2000/svg" xmlns:xlink="http://www.w3.org/1999/xlink" width="480pt" height="480pt" viewBox="0 0 480 480" version="1.1">
<g id="surface5426794">
<path style=" stroke:none;fill-rule:nonzero;fill:rgb(27.058825%,25.098041%,100%);fill-opacity:1;" d="M 53.195312 267.671875 L 51.085938 265.210938 C 29.4375 240.011719 18 210.550781 18 180 C 18 97.285156 101.4375 30 204 30 C 306.5625 30 390 97.285156 390 180 C 390 262.714844 306.5625 330 204 330 C 173.675781 330 143.472656 323.902344 116.699219 312.382812 L 114.601562 311.484375 L 32.890625 338.710938 Z M 53.195312 267.671875 "/>
<path style=" stroke:none;fill-rule:nonzero;fill:rgb(20%,74.509805%,94.117647%);fill-opacity:1;" d="M 204 36 C 303.253906 36 384 100.597656 384 180 C 384 259.402344 303.253906 324 204 324 C 174.480469 324 145.117188 318.070312 119.0625 306.863281 L 114.863281 305.050781 L 110.53125 306.492188 L 41.796875 329.398438 L 58.078125 272.398438 L 59.855469 266.183594 L 55.644531 261.277344 C 34.945312 237.203125 24 209.089844 24 180 C 24 100.597656 104.746094 36 204 36 M 204 24 C 97.957031 24 12 93.839844 12 180 C 12 213.15625 24.828125 243.839844 46.535156 269.125 L 24 348 L 114.324219 317.890625 C 141.097656 329.410156 171.589844 336 204 336 C 310.042969 336 396 266.160156 396 180 C 396 93.839844 310.042969 24 204 24 Z M 204 24 "/>
<path style=" stroke:none;fill-rule:nonzero;fill:rgb(27.058825%,25.098041%,100%);fill-opacity:1;" d="M 389.808594 424.117188 L 387.3125 425.183594 C 367.476562 433.691406 346.175781 438 324 438 C 247.90625 438 186 386.855469 186 324 C 186 261.144531 247.90625 210 324 210 C 400.09375 210 462 261.144531 462 324 C 462 344.074219 455.449219 363.925781 443.039062 381.40625 L 441.46875 383.640625 L 459.214844 457.175781 Z M 389.808594 424.117188 "/>
<path style=" stroke:none;fill-rule:nonzero;fill:rgb(20%,74.509805%,94.117647%);fill-opacity:1;" d="M 324 216 C 396.78125 216 456 264.445312 456 324 C 456 342.816406 449.832031 361.464844 438.144531 377.941406 L 434.988281 382.390625 L 436.273438 387.695312 L 450.433594 446.339844 L 394.847656 419.867188 L 389.953125 417.539062 L 384.960938 419.675781 C 365.855469 427.847656 345.347656 432 324 432 C 251.21875 432 192 383.554688 192 324 C 192 264.445312 251.21875 216 324 216 M 324 204 C 244.476562 204 180 257.722656 180 324 C 180 390.277344 244.476562 444 324 444 C 347.6875 444 369.972656 439.152344 389.675781 430.703125 L 468 468 L 447.9375 384.875 C 460.609375 367.019531 468 346.246094 468 324 C 468 257.722656 403.523438 204 324 204 Z M 324 204 "/>
<path style=" stroke:none;fill-rule:nonzero;fill:rgb(20%,74.509805%,94.117647%);fill-opacity:1;" d="M 270 288 C 260.058594 288 252 296.058594 252 306 C 252 315.941406 260.058594 324 270 324 C 279.941406 324 288 315.941406 288 306 C 288 296.058594 279.941406 288 270 288 Z M 378 288 C 368.058594 288 360 296.058594 360 306 C 360 315.941406 368.058594 324 378 324 C 387.941406 324 396 315.941406 396 306 C 396 296.058594 387.941406 288 378 288 Z M 144 108 C 130.746094 108 120 118.746094 120 132 C 120 145.253906 130.746094 156 144 156 C 157.253906 156 168 145.253906 168 132 C 168 118.746094 157.253906 108 144 108 Z M 264 108 C 250.746094 108 240 118.746094 240 132 C 240 145.253906 250.746094 156 264 156 C 277.253906 156 288 145.253906 288 132 C 288 118.746094 277.253906 108 264 108 Z M 264 108 "/>
</g>
</svg>
